<svg enable_background="new 0 0 1000 1017" height="700px" pretty_print="False" style="stroke-linejoin: round; stroke:#000; fill: none;" version="1.1" viewBox="0 0 1000 1017" width="700px" xmlns="http://www.w3.org/2000/svg" xmlns:xlink="http://www.w3.org/1999/xlink" preserveAspectRatio="xMinYMin meet"><defs><style type="text/css"><![CDATA[path { fill-rule: evenodd; }]]></style></defs><metadata><views><view h="1017.62391339" padding="0" w="1000"><proj flip="auto" id="robinson" lon0="-63.956434543"/><bbox h="1154.23" w="1135.36" x="-1569.13" y="-224.34"/></view></views></metadata><g class="" id="South America"><path d="M632.989739,1000.127208L633.477550,1001.245150L633.435887,1001.295428L633.698913,1001.334226L634.177805,1001.241319L634.317780,1001.175535L633.147300,1000.215566L632.989739,1000.127208Z M685.135444,999.104360L675.812838,999.739405L676.734928,1001.554758L685.135444,999.104360Z M620.036583,969.811044L628.084579,988.861805L630.126068,993.568705L632.890631,999.898176L633.843185,1000.560149L658.354103,1003.566354L669.726952,1001.481207L669.940884,997.872578L656.449367,995.996747L620.814882,970.443629L620.036583,969.811044Z M635.093078,777.378323L634.637193,775.904164L631.921051,775.281807L635.093078,777.378323Z M525.399139,534.118200L526.531033,535.282144L525.469892,551.826101L518.723236,555.253924L511.226516,562.939197L512.132039,573.182892L518.974917,594.211979L512.988647,597.592302L504.940579,620.318745L503.019948,629.475897L507.956018,642.846150L504.256764,648.267743L502.610599,663.134046L509.133950,673.991011L515.496613,688.621760L517.066368,716.304881L515.389936,718.253889L519.733283,731.201878L517.027026,732.867801L516.777727,754.555767L520.319853,759.853078L518.658752,784.463883L520.955334,800.291721L529.164554,818.936397L528.508292,830.438321L538.987395,845.463369L538.177541,847.213401L546.626496,852.106342L547.299220,857.486592L538.174509,857.339656L548.994919,863.455723L545.840273,868.366639L552.546141,884.519724L553.079075,892.043504L549.180954,900.007730L553.446571,915.394100L546.185681,922.402554L557.711640,942.784030L567.230752,941.643243L573.387570,956.378249L579.533837,960.693165L607.709789,962.783044L620.433653,966.090816L620.536115,966.141861L602.967808,946.637778L602.792727,940.811070L613.057116,932.082483L611.739086,923.420782L615.169542,912.812250L625.027463,896.891725L621.249855,890.491836L611.732108,889.706041L597.990125,879.021514L597.782345,869.116846L606.264850,860.753511L614.942710,860.530783L614.776589,845.459450L618.326024,833.431916L621.284991,831.654215L611.676741,828.231523L614.238920,825.460478L622.566112,829.911528L628.158146,826.404234L623.619526,818.773336L617.072558,823.861706L607.747878,817.349295L606.784481,810.831595L602.225397,800.895388L604.642015,798.873784L624.631243,805.437800L633.145789,802.881449L633.781957,781.355410L627.589207,770.677664L642.860380,773.763990L654.189177,772.091501L671.661505,767.448318L682.819226,761.445863L690.465155,741.836701L685.993286,734.283479L679.211713,728.605804L679.438104,718.611450L661.547154,707.077576L659.629494,696.838371L660.810460,685.521865L659.022175,676.029266L659.036832,676.058353L659.363027,666.138472L658.839411,660.877067L660.652630,643.540402L660.798184,642.763366L661.107575,642.703252L684.165819,610.923637L690.516107,603.625677L696.793199,602.161588L703.211377,594.507323L698.738056,575.603776L690.266518,574.688784L689.669771,574.736333L689.481708,575.849961L689.915981,587.286083L678.650106,602.219036L674.152029,600.283162L670.949493,604.437638L642.562070,600.291387L641.228361,598.150231L646.931877,582.801075L652.067121,573.186998L648.876653,568.723204L631.593718,560.638340L618.193341,551.649822L605.127024,547.878048L595.375566,540.343844L587.955657,530.003715L582.752827,526.061628L582.368154,525.520902L582.223219,525.504365L579.921896,521.983068L565.473278,522.009060L561.896199,534.884570L555.770718,524.672535L541.702497,523.049862L536.029140,518.759223L534.978089,523.717199L525.974101,532.634651L525.399139,534.118200Z "/><path d="M582.368154,525.520902L582.465895,525.270772L584.794412,500.788993L590.296466,487.258927L612.512433,482.124236L617.660458,482.488929L637.068872,494.253560L636.864404,494.974726L637.469635,494.696138L636.806757,488.680887L640.348474,478.444108L639.612519,460.701972L630.174535,451.910185L628.538126,444.126464L629.947295,437.596887L606.322893,437.359181L604.568574,425.783823L599.713245,420.160165L603.740874,420.102780L592.057468,396.486906L585.765359,397.301619L565.173037,384.841951L549.732304,381.526242L539.766788,374.665334L534.853705,366.794555L532.640398,353.988494L533.584450,345.434916L531.927010,340.214053L515.854483,344.414637L497.999174,355.640175L492.270109,361.267758L479.384933,358.972220L479.373311,358.980128L480.346411,360.623901L488.822324,387.288764L489.486653,401.596988L491.807395,406.904771L485.879440,415.897445L489.558397,435.785189L494.451485,437.744478L485.813963,451.401954L487.637858,454.533398L487.760830,455.689273L488.054687,457.533704L494.031847,463.562831L496.734861,477.050712L502.653415,482.493030L503.842074,491.262444L501.792232,496.003252L504.735300,505.332906L510.200174,511.626299L516.584825,534.212462L523.520999,534.577218L525.399139,534.118200L525.974101,532.634651L534.978089,523.717199L536.029140,518.759223L541.702497,523.049862L555.770718,524.672535L561.896199,534.884570L565.473278,522.009060L579.921896,521.983068L582.223219,525.504365L582.368154,525.520902Z "/><path d="M769.547058,573.449641L768.994334,571.816617L768.814783,572.559253L769.547058,573.449641Z M774.045049,566.667899L777.161187,563.074540L774.650560,564.793203L774.045049,566.667899Z M806.231466,548.251097L804.862667,547.500916L804.112326,549.194001L806.231466,548.251097Z M819.958251,539.323245L816.433462,539.138790L816.418169,539.364220L819.958251,539.323245Z M999.508176,499.817911L999.400027,499.703182L999.348388,499.740044L999.508176,499.817911Z M878.236976,399.174714L877.169758,398.022978L877.792577,399.195194L878.236976,399.174714Z M879.933363,390.879116L880.955162,388.403578L880.227908,389.489710L879.933363,390.879116Z M899.921007,361.611657L901.030123,359.607491L900.648150,359.357475L899.921007,361.611657Z M927.795275,301.764941L927.839631,301.428853L927.599892,301.744447L927.795275,301.764941Z M928.033118,300.760792L927.887414,300.691104L927.873836,300.740283L928.033118,300.760792Z M958.611493,254.700867L959.473500,254.184445L958.848172,254.225434L958.611493,254.700867Z M800.075301,241.782138L800.033281,239.999245L799.523929,241.417367L800.075301,241.782138Z M800.395465,242.437904L801.664195,237.384355L800.658247,238.249154L800.395465,242.437904Z M833.370652,238.146696L833.114815,237.027774L831.623262,236.974494L833.370652,238.146696Z M811.897723,231.732425L812.602705,230.650406L812.180495,230.769256L811.897723,231.732425Z M718.398493,225.592746L714.671288,224.670567L716.164769,226.551812L718.398493,225.592746Z M743.175917,223.895936L743.594824,220.678564L742.952731,220.924483L743.175917,223.895936Z M799.296260,221.358926L798.449133,220.453139L797.594278,221.289253L799.296260,221.358926Z M747.402247,219.305536L747.337127,217.953017L746.576211,218.780927L747.402247,219.305536Z M748.811681,219.899832L748.613632,217.780872L748.079956,218.043184L748.811681,219.899832Z M698.085840,219.936719L700.819476,217.489876L697.911234,219.035035L698.085840,219.936719Z M794.908902,218.084173L795.050195,216.014390L794.377156,217.116903L794.908902,218.084173Z M775.175411,212.452730L775.483303,210.411647L774.544764,211.661708L775.175411,212.452730Z M716.666490,210.182120L714.067321,213.284742L715.601793,212.711176L716.666490,210.182120Z M717.537392,209.866529L717.496556,208.157430L716.948368,209.362400L717.537392,209.866529Z M756.437156,208.128731L757.110472,207.198364L755.974955,207.542639L756.437156,208.128731Z M759.915242,207.862333L760.114846,206.063052L760.012889,205.878616L759.915242,207.862333Z M715.819518,207.124590L716.252386,205.739271L715.973459,205.710573L715.819518,207.124590Z M704.815890,219.186685L714.553036,207.280327L707.920384,210.292782L704.815890,219.186685Z M711.222358,205.378589L712.312208,204.276077L711.310550,204.669545L711.222358,205.378589Z M717.019967,205.772057L718.789177,202.882570L718.058372,203.083398L717.019967,205.772057Z M715.074461,205.366298L717.126339,202.386644L716.125611,201.648902L715.074461,205.366298Z M717.680137,202.353844L716.338193,201.050504L717.046262,202.181714L717.680137,202.353844Z M719.034951,202.694032L719.742467,201.673483L719.740952,200.743116L719.034951,202.694032Z M711.516519,204.550680L715.228315,199.394685L711.271853,203.812937L711.516519,204.550680Z M733.238135,200.759509L720.929693,201.517746L721.362019,214.374963L719.117523,218.653873L723.927799,224.412356L732.080740,224.191048L745.777457,215.579934L750.222707,201.266323L740.057701,199.402874L733.238135,200.759509Z M722.240543,198.320857L716.820864,198.726615L716.113144,200.706229L722.240543,198.320857Z M717.747370,198.099534L720.408405,197.046200L718.569293,196.550275L717.747370,198.099534Z M735.684113,199.382380L735.701635,196.287963L734.738598,196.197796L735.684113,199.382380Z M723.561844,197.734764L723.562620,195.468257L721.793413,194.324756L723.561844,197.734764Z M726.333974,194.013266L728.041901,192.455803L726.092202,193.455858L726.333974,194.013266Z M734.244663,194.041950L733.309741,192.435309L724.581063,194.447708L734.244663,194.041950Z M729.440186,184.389812L727.602562,184.316894L726.028900,185.279205L729.440186,184.389812Z M729.415526,183.598790L730.187191,182.852858L729.523688,181.828207L729.415526,183.598790Z M724.482161,169.639054L724.755090,165.921653L724.552732,165.892955L724.482161,169.639054Z M723.496784,166.122481L723.705191,164.728957L722.764887,165.265873L723.496784,166.122481Z M590.828979,120.602620L590.999709,120.616062L592.744127,124.148868L579.701805,134.731438L568.467861,135.653621L563.952265,143.715546L555.845464,138.809537L540.277207,136.584007L543.705997,142.535153L547.579348,157.400711L555.453799,161.634536L547.376631,168.495551L546.261047,173.049065L532.345347,180.807672L526.676539,187.488331L526.362970,182.803665L517.251698,186.365325L509.701102,179.384006L509.682513,179.373530L509.525627,179.381807L502.588863,165.786395L492.154298,168.868525L492.041772,171.200620L471.902661,172.171977L470.950942,181.578201L478.404266,182.078228L479.146596,188.305101L468.269588,188.681025L468.067993,199.722568L476.252079,212.067466L476.868602,215.784864L470.497702,259.602791L470.340020,259.913235L470.436707,260.291360L458.986288,259.098660L445.390406,263.955925L433.038048,273.013203L428.872283,286.186144L422.330673,298.867227L419.455606,308.970272L433.802537,329.946795L430.979745,336.201181L442.858464,338.107006L444.852811,344.275279L454.092211,345.008685L464.294343,337.434854L467.359692,359.062385L479.143383,358.968133L479.373311,358.980128L479.384933,358.972220L492.270109,361.267758L497.999174,355.640175L515.854483,344.414637L531.927010,340.214053L533.584450,345.434916L532.640398,353.988494L534.853705,366.794555L539.766788,374.665334L549.732304,381.526242L565.173037,384.841951L585.765359,397.301619L592.057468,396.486906L603.740874,420.102780L599.713245,420.160165L604.568574,425.783823L606.322893,437.359181L629.947295,437.596887L628.538126,444.126464L630.174535,451.910185L639.612519,460.701972L640.348474,478.444108L636.806757,488.680887L637.469635,494.696138L636.864404,494.974726L636.980439,495.868030L642.307831,507.033261L641.508893,522.894162L655.945152,526.041153L667.274735,526.028835L672.315907,533.966577L675.835528,546.488355L683.637013,550.305054L686.592517,548.632355L692.252518,556.812147L689.569423,573.809184L689.669771,574.736333L690.266518,574.688784L698.738056,575.603776L703.211377,594.507323L696.793199,602.161588L690.516107,603.625677L684.165819,610.923637L661.107575,642.703252L660.798184,642.763366L661.183346,642.919670L670.578363,641.592353L682.700004,652.413988L687.714351,652.516041L698.762182,661.166815L701.527541,661.587211L721.687613,678.806455L719.911457,693.861121L722.102227,695.100053L722.751690,694.637974L733.925231,671.124934L733.657080,660.591421L740.804328,651.467306L740.178269,641.306463L744.693453,645.794087L747.677898,643.299436L743.662305,660.452647L748.439599,655.931367L752.606916,646.830974L754.313279,638.624268L769.174666,613.903229L769.672499,608.574730L765.567333,579.296775L763.976476,579.419843L773.757469,567.106806L791.068537,551.821998L804.077070,548.431476L803.642606,546.029199L820.344391,535.819029L845.850084,535.556745L846.420346,529.819351L855.627642,523.934915L857.878495,510.958410L866.825128,495.441831L872.160945,466.284272L876.594127,461.058545L877.935480,443.638719L880.228372,431.620668L877.312270,416.073687L878.723135,391.719318L880.958652,383.731259L888.894729,383.796829L900.618735,359.218148L907.121545,353.021245L924.988939,328.286879L928.477478,316.306743L928.278448,301.610870L920.259720,274.341165L896.919907,269.513198L895.780073,267.131897L860.207750,239.429544L853.934751,238.650826L841.821230,240.302547L836.220909,237.736834L816.409914,232.306227L806.401640,238.281939L801.380581,227.650238L791.190406,222.949175L790.153864,217.317731L783.629752,216.166041L779.170801,211.526450L770.816442,207.927903L758.438081,206.915558L751.133776,216.903769L753.254197,219.117013L729.511683,224.281200L718.895196,211.251847L716.725084,210.977245L705.887374,219.600633L700.578062,221.743762L694.261720,220.563801L707.159563,212.665849L707.368345,208.501705L725.455746,186.287463L730.589355,178.938719L730.601681,172.307235L723.118195,169.569381L719.550885,160.700065L712.934123,135.071628L708.292962,137.866874L708.196536,137.875108L694.772613,162.454257L690.599024,165.290469L669.835726,163.019856L669.742913,163.031734L669.414149,163.151012L666.965453,161.482900L650.456780,162.614097L645.919376,168.860336L645.344719,168.707874L644.625107,169.032466L638.298613,168.979186L625.722802,173.495813L618.759621,178.573949L606.919453,174.331927L603.056059,169.995634L599.786498,155.195667L605.347797,138.395587L602.776631,131.649295L599.354553,131.091883L600.117056,122.001377L591.249773,120.456206L590.828979,120.602620Z "/><path d="M655.208653,1015.262038L652.653898,1014.410990L653.556734,1014.168294L655.208653,1015.262038Z M651.779322,1014.368559L650.950979,1015.381425L649.524212,1014.653552L651.779322,1014.368559Z M655.035209,1013.775321L654.432007,1013.494049L654.998349,1013.470982L655.035209,1013.775321Z M653.541726,1012.873633L650.567039,1013.101088L650.219713,1012.025633L653.541726,1012.873633Z M647.954973,1011.528368L647.551021,1009.997118L649.040057,1010.533332L647.954973,1011.528368Z M625.357774,1008.584815L624.075777,1007.546310L625.765059,1008.310751L625.357774,1008.584815Z M621.851284,1007.913128L620.500765,1006.828018L621.589584,1006.808705L621.851284,1007.913128Z M658.407764,1006.808705L658.019579,1005.155135L659.560562,1005.719233L658.407764,1006.808705Z M654.730687,1004.498025L651.277592,1003.044215L653.673489,1003.214374L654.730687,1004.498025Z M636.560882,1002.282125L633.726105,1005.301937L628.284411,1004.726067L636.560882,1002.282125Z M643.021860,1001.725004L649.771136,1002.332371L646.430424,1006.596209L637.012091,1001.748167L643.021860,1001.725004Z M613.634705,1002.429810L614.904471,1005.796501L613.295348,1004.003236L613.634705,1002.429810Z M622.196782,1003.384522L625.585729,1001.566334L627.571474,1001.984183L622.196782,1003.384522Z M612.122178,1001.519891L611.886660,1000.540807L612.667623,1000.474993L612.122178,1001.519891Z M594.981181,997.756363L596.184859,999.514803L595.931017,998.810021L594.981181,997.756363Z M590.114692,994.049859L587.392961,993.661864L588.404009,993.196206L590.114692,994.049859Z M611.698950,992.742082L608.745719,991.686153L611.088253,991.569680L611.698950,992.742082Z M578.845985,990.691894L575.709991,990.050945L576.008039,989.308764L578.845985,990.691894Z M599.739151,989.953831L601.481747,993.615278L598.425374,991.604558L599.739151,989.953831Z M594.357630,988.103707L593.313218,992.423849L590.983592,991.115303L594.357630,988.103707Z M607.329144,986.937016L602.465188,987.073220L605.346105,986.590838L607.329144,986.937016Z M568.317678,983.149616L567.341260,981.232471L569.461474,982.187303L568.317678,983.149616Z M577.421135,980.893382L586.369505,986.987650L572.926080,984.835711L577.421135,980.893382Z M562.667850,979.524570L561.884693,979.072105L562.903554,978.080984L562.667850,979.524570Z M568.349608,973.150972L569.071456,974.206482L568.428341,974.245557L568.349608,973.150972Z M558.313291,974.140037L574.791704,980.094031L559.546094,976.101555L558.313291,974.140037Z M567.774969,971.199002L567.794623,970.764526L567.953926,970.639289L567.774969,971.199002Z M620.036583,969.811044L628.084579,988.861805L630.126068,993.568705L632.890631,999.898176L632.989739,1000.127208L633.477550,1001.245150L633.435887,1001.295428L633.364706,1001.310947L615.330092,1000.788501L610.911694,997.667189L595.378232,997.613026L594.063937,995.291088L612.721978,996.194470L608.527981,992.831426L613.600189,979.423113L609.017033,980.565816L601.071873,971.778056L610.032273,967.223893L614.368674,970.416206L618.962912,969.300282L620.036583,969.811044Z M550.042765,965.231969L548.581104,963.996000L550.772619,963.858680L550.042765,965.231969Z M560.908219,966.365326L556.618304,962.751662L560.277376,964.486524L560.908219,966.365326Z M554.964575,962.684898L552.986381,963.026432L553.331537,961.938679L554.964575,962.684898Z M548.964739,963.415147L548.237374,962.590637L549.774626,961.604757L548.964739,963.415147Z M552.735378,961.844388L552.177055,961.675539L552.041276,961.420135L552.735378,961.844388Z M548.825375,961.985823L550.259288,959.918907L550.490991,960.084001L548.825375,961.985823Z M561.186302,964.168687L558.291927,962.119373L554.970799,959.435362L561.186302,964.168687Z M547.525504,962.720168L546.780062,959.392061L548.631329,958.755002L547.525504,962.720168Z M543.493579,959.360622L542.778834,956.909666L543.900009,957.141872L543.493579,959.360622Z M554.348130,960.064345L548.835178,956.705001L548.859307,956.661651L554.348130,960.064345Z M546.431043,958.227902L545.317492,958.900510L544.927682,956.850634L546.431043,958.227902Z M552.867592,954.428596L554.298645,957.822674L552.039826,956.752247L552.867592,954.428596Z M541.304370,952.185627L540.718935,954.799000L538.690909,954.345912L541.304370,952.185627Z M554.805482,951.842432L553.924018,951.732037L552.895295,950.915300L554.805482,951.842432Z M545.780899,950.532464L543.959376,952.706174L541.421026,952.859958L545.780899,950.532464Z M546.738744,949.525869L543.802146,947.602207L544.652652,946.950135L546.738744,949.525869Z M544.776157,944.577175L542.679173,948.155350L539.148936,946.226650L544.776157,944.577175Z M541.672847,945.008479L537.878614,943.338332L539.915668,942.380038L541.672847,945.008479Z M537.775420,943.912391L535.873520,941.651187L536.796485,941.615501L537.775420,943.912391Z M534.805500,939.669405L534.191280,940.870610L531.176430,938.927685L534.805500,939.669405Z M533.234846,934.675288L536.208873,934.889887L533.103050,938.376231L533.234846,934.675288Z M524.658594,925.791368L523.423627,925.133124L523.684498,924.646270L524.658594,925.791368Z M538.198784,925.982880L536.650286,926.198272L536.799180,924.554421L538.198784,925.982880Z M529.543571,922.166920L525.263263,919.045910L528.625110,919.133861L529.543571,922.166920Z M523.096979,916.338436L522.999580,917.266411L521.509579,918.590187L523.096979,916.338436Z M524.928290,917.918359L523.822803,915.386076L525.100708,916.074383L524.928290,917.918359Z M525.695982,914.213399L525.026786,912.864371L527.017639,913.128629L525.695982,914.213399Z M522.080802,913.793203L518.511931,914.929929L520.878551,912.672143L522.080802,913.793203Z M524.607058,915.526201L524.031210,912.656086L524.464998,913.248704L524.607058,915.526201Z M530.979241,911.150427L529.823699,909.371815L531.792064,910.245123L530.979241,911.150427Z M534.649302,909.940690L532.306111,909.375883L532.779698,908.834912L534.649302,909.940690Z M528.311552,910.080852L536.016565,926.329824L533.769055,931.684538L525.709337,905.981576L528.311552,910.080852Z M529.631758,907.901315L526.708154,905.693021L527.066424,905.236023L529.631758,907.901315Z M523.005721,905.753137L525.136854,908.862967L523.479344,909.920658L523.005721,905.753137Z M522.942419,902.032670L518.378817,903.885018L519.096367,902.826561L522.942419,902.032670Z M532.982839,901.860318L529.012152,903.271669L527.156011,901.391161L532.982839,901.860318Z M518.920845,901.322983L516.833593,899.819278L518.731123,899.626753L518.920845,901.322983Z M525.846842,877.692916L523.067675,875.444906L523.183962,874.897120L525.846842,877.692916Z M512.919774,872.523103L511.797140,876.248847L510.099596,873.042533L512.919774,872.523103Z M524.628439,872.391195L523.549249,874.341502L523.015835,874.497421L524.628439,872.391195Z M521.405793,873.470048L519.660488,871.532319L521.336798,871.604287L521.405793,873.470048Z M511.725391,870.450071L509.977736,869.615753L509.833395,868.985100L511.725391,870.450071Z M513.525731,871.156934L512.169636,869.432126L512.530802,868.829456L513.525731,871.156934Z M520.721526,870.693647L518.595881,868.953206L520.821266,868.733781L520.721526,870.693647Z M515.522447,871.476371L514.130298,867.285583L514.456781,866.663461L515.522447,871.476371Z M524.872450,871.192806L522.109249,868.111325L522.449150,866.787113L524.872450,871.192806Z M513.729692,868.031559L513.035687,866.715367L513.942832,866.452216L513.729692,868.031559Z M520.255529,866.520007L520.568108,865.603134L520.998929,866.141243L520.255529,866.520007Z M514.930940,866.117262L512.370056,864.455495L514.210414,864.742304L514.930940,866.117262Z M518.461131,864.128797L516.968760,864.953521L516.163569,863.885821L518.461131,864.128797Z M518.608510,860.335921L514.936029,862.663448L515.689853,860.797212L518.608510,860.335921Z M516.953084,860.073659L513.825347,858.551274L516.594685,858.865177L516.953084,860.073659Z M503.920573,859.230848L502.553373,858.006983L503.084915,857.196759L503.920573,859.230848Z M515.758605,858.249327L515.609526,857.025966L516.255786,857.367464L515.758605,858.249327Z M519.033390,859.795310L517.319959,858.940701L516.547884,857.339656L519.033390,859.795310Z M520.078483,858.070595L518.514473,857.053771L520.189477,856.823437L520.078483,858.070595Z M509.891957,855.918309L507.225175,855.414256L507.681938,854.890454L509.891957,855.918309Z M506.094401,855.826959L505.059650,853.851085L505.952897,854.196130L506.094401,855.826959Z M518.455973,856.628885L517.231971,855.719794L516.828610,853.981927L518.455973,856.628885Z M511.164657,854.251697L510.137058,853.505993L511.908287,853.085663L511.164657,854.251697Z M514.285824,853.958180L512.876270,853.613062L512.443198,852.411551L514.285824,853.958180Z M509.458855,853.331484L507.937421,852.284683L509.951705,851.678237L509.458855,853.331484Z M529.437579,853.851085L525.840247,859.326260L521.903238,854.454037L529.437579,853.851085Z M514.785617,852.407626L512.691333,851.563268L512.264967,850.604178L514.785617,852.407626Z M522.539378,851.555320L521.703638,850.734883L522.664998,850.699303L522.539378,851.555320Z M515.189514,850.837957L513.413635,850.037597L515.187173,849.867177L515.189514,850.837957Z M516.606272,850.354507L515.766413,849.637361L515.812796,849.593832L516.606272,850.354507Z M508.906658,848.797612L508.671899,848.072785L508.995887,848.112378L508.906658,848.797612Z M508.383924,846.473007L508.054644,846.219525L508.244764,846.203761L508.383924,846.473007Z M516.492498,847.890575L514.704886,845.107060L516.013303,846.160147L516.492498,847.890575Z M502.090500,840.496340L499.349448,839.677159L501.460444,839.732590L502.090500,840.496340Z M513.801078,831.747205L510.903933,830.735403L511.178912,830.553192L513.801078,831.747205Z M509.491247,826.320917L509.479060,826.705538L507.768389,825.952155L509.491247,826.320917Z M511.330837,825.440646L508.521274,823.996630L509.148494,823.048082L511.330837,825.440646Z M513.819473,821.940406L512.607892,821.058637L513.531124,820.971242L513.819473,821.940406Z M502.165084,814.840699L506.798662,815.187366L510.373393,820.983141L506.371758,824.401263L513.224808,833.404182L511.841791,837.045684L503.639521,835.735647L500.780931,820.891810L502.165084,814.840699Z M512.742274,815.541853L511.723396,815.171389L512.759677,815.067768L512.742274,815.541853Z M384.355624,695.674159L383.679777,694.617417L384.490538,694.794132L384.355624,695.674159Z M408.036184,693.367866L406.626319,693.478815L405.713080,694.004938L408.036184,693.367866Z M2.912426,597.776911L1.091043,596.747268L3.030630,597.227258L2.912426,597.776911Z M371.311996,586.165897L371.067888,586.051000L371.218965,586.009964L371.311996,586.165897Z M368.641623,584.906159L368.352874,584.902053L368.570416,584.754345L368.641623,584.906159Z M525.399139,534.118200L526.531033,535.282144L525.469892,551.826101L518.723236,555.253924L511.226516,562.939197L512.132039,573.182892L518.974917,594.211979L512.988647,597.592302L504.940579,620.318745L503.019948,629.475897L507.956018,642.846150L504.256764,648.267743L502.610599,663.134046L509.133950,673.991011L515.496613,688.621760L517.066368,716.304881L515.389936,718.253889L519.733283,731.201878L517.027026,732.867801L516.777727,754.555767L520.319853,759.853078L518.658752,784.463883L520.955334,800.291721L529.164554,818.936397L528.508292,830.438321L538.987395,845.463369L538.177541,847.213401L546.626496,852.106342L547.299220,857.486592L538.174509,857.339656L548.994919,863.455723L545.840273,868.366639L552.546141,884.519724L553.079075,892.043504L549.180954,900.007730L553.446571,915.394100L546.185681,922.402554L557.711640,942.784030L567.230752,941.643243L573.387570,956.378249L579.533837,960.693165L607.709789,962.783044L620.433653,966.090816L619.853936,965.518322L613.842331,964.710237L596.255321,971.093356L600.826349,985.466351L590.090829,985.104388L582.101883,979.345118L587.843439,978.049792L589.832350,980.893382L593.710004,973.295636L574.556650,974.788819L580.733531,969.785883L574.381803,971.445554L570.735990,975.968748L569.067973,970.897618L560.615482,961.958306L568.783684,960.072227L575.018508,965.381073L568.155210,954.901367L565.688132,962.072232L546.882422,945.720401L550.614964,943.255253L545.278574,938.507209L537.463238,935.195914L538.268365,926.808381L542.685095,925.460241L537.956979,918.238316L538.564104,925.591944L529.178823,903.856946L539.211513,907.051682L534.888901,900.392671L526.241463,897.625640L528.122429,889.373288L508.127292,884.247372L513.335545,872.099537L519.094968,871.744057L517.297207,877.024814L526.089029,878.233070L529.599528,870.110793L524.804740,866.894764L531.324273,866.938692L525.721864,859.803282L530.327733,852.760452L521.743908,845.807837L524.110995,842.835197L518.004233,825.698381L520.114376,818.848920L510.652541,812.061289L503.422113,813.908054L496.831244,802.664508L498.254610,777.353684L491.597415,766.581994L489.652822,758.242415L485.828523,752.871199L485.238431,746.072256L488.470057,747.308315L490.849827,739.267228L490.333181,728.555725L494.204084,715.445342L495.815236,695.098469L494.625005,689.639281L494.989683,675.317875L492.675884,672.183240L487.792112,656.714804L485.302188,645.124568L488.913080,638.528533L483.380864,623.774725L486.075438,597.703059L487.759533,595.532975L485.810203,578.168327L488.491299,571.656594L482.841676,542.335872L485.974862,535.294419L483.438691,492.159826L477.482613,468.177793L477.361199,468.131700L484.912275,462.124218L484.168728,460.054396L486.247674,457.345130L487.760830,455.689273L488.054687,457.533704L494.031847,463.562831L496.734861,477.050712L502.653415,482.493030L503.842074,491.262444L501.792232,496.003252L504.735300,505.332906L510.200174,511.626299L516.584825,534.212462L523.520999,534.577218L525.399139,534.118200Z M521.237240,874.741185L521.137660,876.584798L521.610993,876.160857L521.237240,874.741185Z "/><path d="M357.828090,161.749299L357.768031,161.495190L357.716734,161.888659L357.828090,161.749299Z M363.376401,160.499236L363.226858,158.331080L362.190612,159.404911L363.376401,160.499236Z M365.148165,159.884445L365.670611,158.626178L364.389821,159.286060L365.148165,159.884445Z M366.836763,159.429507L366.847264,158.280028L366.499347,157.781874L366.836763,159.429507Z M367.986054,159.163093L366.529179,157.581045L367.089384,158.441757L367.986054,159.163093Z M371.548062,135.526566L373.808297,133.850244L371.623181,134.948675L371.548062,135.526566Z M376.411811,69.399990L377.633733,77.215968L371.844776,84.064711L368.642894,90.737207L369.848313,91.872528L375.398810,100.582065L376.201485,111.992585L373.146385,116.226440L376.013814,140.686687L366.937238,159.642642L361.510901,160.228735L353.556910,174.938514L354.141235,176.184473L371.263534,187.566208L372.651141,191.722163L379.433244,193.886198L388.736285,191.927093L399.838711,198.972534L399.929411,199.165159L400.068294,199.217170L418.907125,216.141445L422.590934,217.625119L428.809911,225.863261L428.509017,231.621763L440.165105,234.269437L444.756105,231.634054L453.670078,232.228351L468.380009,238.056529L460.817792,251.958917L470.332245,259.508522L470.340020,259.913235L470.497702,259.602791L476.868602,215.784864L476.252079,212.067466L468.067993,199.722568L468.269588,188.681025L479.146596,188.305101L478.404266,182.078228L470.950942,181.578201L471.902661,172.171977L492.041772,171.200620L492.154298,168.868525L502.588863,165.786395L509.525627,179.381807L509.682513,179.373530L509.600590,179.247848L505.435707,163.642851L497.524541,154.953849L501.017546,142.313829L498.330192,134.850304L498.310235,118.874148L503.478862,109.582387L502.324398,104.963470L478.044391,107.119351L469.088376,94.376770L460.475259,92.823397L455.631731,94.663681L445.088459,93.835765L439.201262,86.691901L440.912595,74.002693L428.787274,61.272556L433.856143,53.268114L435.483231,44.677875L441.610334,33.308679L448.786667,25.283864L457.413880,22.509194L457.493511,22.328864L459.204698,15.914694L453.681915,13.496567L431.510320,30.734840L421.811291,29.837278L416.842997,38.759680L411.308629,33.570985L403.403169,40.132678L399.686607,57.637147L393.198555,59.948729L385.480462,69.338521L382.891467,77.394000L376.658597,69.588512L376.411811,69.399990Z M323.609596,13.099002L324.105949,11.754686L323.902506,11.644040L323.609596,13.099002Z M329.276638,0.000000L329.057072,0.819726L329.348274,0.303303L329.276638,0.000000Z "/><path d="M336.562829,242.175592L339.931111,238.191772L336.280475,237.593387L336.562829,242.175592Z M341.048314,236.380211L340.757570,233.794006L340.415189,236.056416L341.048314,236.380211Z M213.240229,218.153845L212.985649,217.297237L211.779724,217.264452L213.240229,218.153845Z M207.638881,209.776362L207.127028,209.218953L207.119732,209.632915L207.638881,209.776362Z M204.796621,208.481210L205.687141,205.407287L202.245283,204.981034L204.796621,208.481210Z M188.630907,204.718723L188.825658,201.091493L186.879697,201.698080L188.630907,204.718723Z M192.259812,197.562620L190.432132,201.890704L194.062108,205.993380L188.781692,211.030524L196.094432,211.706784L192.259812,197.562620Z M198.381643,189.320397L198.388283,188.287558L197.739082,188.996617L198.381643,189.320397Z M352.769644,179.114966L353.012515,177.852599L352.099769,177.885384L352.769644,179.114966Z M353.885999,176.315629L337.755942,185.172646L337.972868,194.841176L332.140138,203.595716L333.689794,206.456520L329.223935,225.904250L326.081512,229.638044L333.000758,236.253157L342.497605,235.630162L337.334475,246.602075L334.988948,246.970948L334.778324,247.277761L333.581185,262.893968L336.237970,262.283261L349.291612,270.668998L353.824491,269.230390L366.107940,242.252892L382.429800,235.350173L396.146861,220.352910L400.888165,211.800329L399.676300,199.386482L399.929411,199.165159L399.838711,198.972534L388.736285,191.927093L379.433244,193.886198L372.651141,191.722163L371.263534,187.566208L354.141235,176.184473L353.885999,176.315629Z "/><path d="M676.296955,118.505274L672.424532,132.320084L676.602411,148.781391L671.113205,162.503435L669.742913,163.031734L669.835726,163.019856L690.599024,165.290469L694.772613,162.454257L708.196536,137.875108L708.326198,137.649638L704.848508,131.641106L694.883739,119.779942L685.267393,115.242784L676.599835,118.386407L676.296955,118.505274Z "/><path d="M717.004565,964.184426L715.947345,963.156053L716.240702,964.332619L717.004565,964.184426Z M697.982666,958.837533L698.081537,958.208230L696.845116,958.235776L697.982666,958.837533Z M700.127274,958.904403L700.584710,960.005389L702.173095,959.824538L700.127274,958.904403Z M697.449291,956.496336L696.338028,957.067061L696.748393,957.299251L697.449291,956.496336Z M718.198727,952.398590L705.065795,953.168248L708.769243,957.747898L709.047790,963.002927L718.198727,952.398590Z M723.591698,951.349334L719.914262,953.218701L715.999763,962.158638L723.898375,964.023494L735.371103,955.440997L732.742791,951.996273L729.524340,955.145666L723.591698,951.349334Z M709.782614,951.550557L709.874570,950.871944L709.174489,950.579834L709.782614,951.550557Z M708.094784,952.323629L705.495739,950.627202L705.994437,951.732037L708.094784,952.323629Z "/><path d="M621.195058,95.635045L622.693271,94.593993L622.182190,94.536611L621.195058,95.635045Z M602.004976,71.461581L603.895107,75.982297L591.996690,86.310722L594.127882,92.270100L585.384468,101.053398L590.594813,120.341442L590.828979,120.602620L591.249773,120.456206L600.117056,122.001377L599.354553,131.091883L602.776631,131.649295L605.347797,138.395587L599.786498,155.195667L603.056059,169.995634L606.919453,174.331927L618.759621,178.573949L625.722802,173.495813L638.298613,168.979186L644.625107,169.032466L645.344719,168.707874L645.307818,168.544744L635.098024,148.461696L625.331621,138.256227L628.329068,124.689888L636.247851,116.451867L636.934030,115.296064L637.893927,109.730143L627.183154,97.204812L620.773579,97.147430L620.906786,88.589550L612.824862,78.683268L602.338681,71.703384L602.004976,71.461581Z "/><path d="M636.247851,116.451867L628.329068,124.689888L625.331621,138.256227L635.098024,148.461696L645.307818,168.544744L645.344719,168.707874L645.919376,168.860336L650.456780,162.614097L666.965453,161.482900L669.414149,163.151012L669.742913,163.031734L671.113205,162.503435L676.602411,148.781391L672.424532,132.320084L676.296955,118.505274L676.635729,117.792121L678.741362,112.537693L675.998912,110.644141L638.851147,109.611306L637.042121,116.009232L636.247851,116.451867Z "/><path d="M636.864404,494.974726L637.068872,494.253560L617.660458,482.488929L612.512433,482.124236L590.296466,487.258927L584.794412,500.788993L582.465895,525.270772L582.368154,525.520902L582.752827,526.061628L587.955657,530.003715L595.375566,540.343844L605.127024,547.878048L618.193341,551.649822L631.593718,560.638340L648.876653,568.723204L652.067121,573.186998L646.931877,582.801075L641.228361,598.150231L642.562070,600.291387L670.949493,604.437638L674.152029,600.283162L678.650106,602.219036L689.915981,587.286083L689.481708,575.849961L689.669771,574.736333L689.569423,573.809184L692.252518,556.812147L686.592517,548.632355L683.637013,550.305054L675.835528,546.488355L672.315907,533.966577L667.274735,526.028835L655.945152,526.041153L641.508893,522.894162L642.307831,507.033261L636.980439,495.868030L636.864404,494.974726Z "/><path d="M334.750836,247.667703L322.977313,262.201297L328.876964,280.489080L325.460379,283.747454L339.436135,295.543270L344.621797,302.027240L355.009050,318.786406L372.077881,355.246716L374.902229,364.013355L385.426860,378.456445L394.728645,393.383346L400.982541,413.729166L422.888365,431.259969L443.387835,442.077014L448.050798,443.655098L461.142254,452.270888L477.268273,468.034335L477.361199,468.131700L484.912275,462.124218L484.168728,460.054396L486.247674,457.345130L487.760830,455.689273L487.637858,454.533398L485.813963,451.401954L494.451485,437.744478L489.558397,435.785189L485.879440,415.897445L491.807395,406.904771L489.486653,401.596988L488.822324,387.288764L480.346411,360.623901L479.373311,358.980128L479.143383,358.968133L467.359692,359.062385L464.294343,337.434854L454.092211,345.008685L444.852811,344.275279L442.858464,338.107006L430.979745,336.201181L433.802537,329.946795L419.455606,308.970272L422.330673,298.867227L428.872283,286.186144L433.038048,273.013203L445.390406,263.955925L458.986288,259.098660L470.436707,260.291360L470.340020,259.913235L470.332245,259.508522L460.817792,251.958917L468.380009,238.056529L453.670078,232.228351L444.756105,231.634054L440.165105,234.269437L428.509017,231.621763L428.809911,225.863261L422.590934,217.625119L418.907125,216.141445L400.068294,199.217170L399.929411,199.165159L399.676300,199.386482L400.888165,211.800329L396.146861,220.352910L382.429800,235.350173L366.107940,242.252892L353.824491,269.230390L349.291612,270.668998L336.237970,262.283261L333.581185,262.893968L334.778324,247.277761L334.750836,247.667703Z "/><path d="M659.103642,676.389092L662.178644,682.912051L659.057814,692.077948L660.623172,697.978348L689.025128,712.499949L696.358722,710.453352L707.279669,712.678254L713.404622,709.310954L721.836532,695.341065L722.102227,695.100053L719.911457,693.861121L721.687613,678.806455L701.527541,661.587211L698.762182,661.166815L687.714351,652.516041L682.700004,652.413988L670.578363,641.592353L661.183346,642.919670L660.798184,642.763366L660.652630,643.540402L658.839411,660.877067L659.363027,666.138472L659.036832,676.058353L659.103642,676.389092Z "/><path d="M588.850902,71.260753L587.809887,70.371360L585.483160,71.867340L588.850902,71.260753Z M588.322907,70.072147L586.784435,69.740178L586.530384,70.527098L588.322907,70.072147Z M588.404886,69.912322L589.534334,69.252442L588.656806,68.809811L588.404886,69.912322Z M591.198796,69.777065L591.468184,68.781098L591.156771,68.625361L591.198796,69.777065Z M589.308852,68.649957L590.883182,66.768702L588.887302,67.072002L589.308852,68.649957Z M588.179145,66.190800L591.036771,63.646202L589.876373,63.797247L588.179145,66.190800Z M590.907341,63.006242L590.023441,62.219326L589.783042,63.608725L590.907341,63.006242Z M592.775429,61.854543L592.561430,61.354534L591.580140,61.629120L592.775429,61.854543Z M586.834919,55.960833L585.529405,54.555049L585.312697,55.063260L586.834919,55.960833Z M572.903741,53.456650L572.846783,50.874566L572.606317,52.690218L572.903741,53.456650Z M568.618892,45.386906L567.223623,42.931939L566.870406,42.936011L568.618892,45.386906Z M535.057452,36.849795L535.790938,35.710406L533.883757,35.550555L535.057452,36.849795Z M554.142327,34.780059L546.308846,35.575151L548.542277,36.107937L554.142327,34.780059Z M517.898643,23.902675L518.379452,22.947730L518.332900,23.066578L517.898643,23.902675Z M524.809005,23.681342L525.040878,23.099362L524.947542,22.914945L524.809005,23.681342Z M544.829899,23.210022L544.425858,21.853427L543.932362,22.677234L544.829899,23.210022Z M457.413880,22.509194L448.786667,25.283864L441.610334,33.308679L435.483231,44.677875L433.856143,53.268114L428.787274,61.272556L440.912595,74.002693L439.201262,86.691901L445.088459,93.835765L455.631731,94.663681L460.475259,92.823397L469.088376,94.376770L478.044391,107.119351L502.324398,104.963470L503.478862,109.582387L498.310235,118.874148L498.330192,134.850304L501.017546,142.313829L497.524541,154.953849L505.435707,163.642851L509.600590,179.247848L509.682513,179.373530L509.701102,179.384006L517.251698,186.365325L526.362970,182.803665L526.676539,187.488331L532.345347,180.807672L546.261047,173.049065L547.376631,168.495551L555.453799,161.634536L547.579348,157.400711L543.705997,142.535153L540.277207,136.584007L555.845464,138.809537L563.952265,143.715546L568.467861,135.653621L579.701805,134.731438L592.744127,124.148868L590.999709,120.616062L590.828979,120.602620L590.594813,120.341442L585.384468,101.053398L594.127882,92.270100L591.996690,86.310722L603.895107,75.982297L602.004976,71.461581L601.801079,71.318135L589.132659,70.969758L589.456460,62.149639L592.185178,59.809370L581.646134,51.235229L570.004771,46.866480L567.419740,44.243442L578.807857,39.599862L568.290280,38.817060L547.981533,40.087588L550.043613,43.153243L536.876214,48.956704L521.835075,40.317080L497.268703,42.517971L495.461076,34.431690L483.765377,27.218348L477.534531,25.337143L475.712163,17.836884L475.391190,28.533966L468.609183,30.784032L453.802384,39.124427L458.782164,51.567224L458.845499,59.374931L456.200031,62.416036L445.375147,52.317249L453.136479,39.308873L449.150188,26.201922L457.151088,23.304289L457.413880,22.509194Z "/></g><g class="" id="Central America"><path d="M276.977252,48.764083L275.961904,48.182103L276.131300,48.637016L276.977252,48.764083Z M270.513647,33.984938L269.141603,49.927834L274.506409,52.919741L279.950363,49.801007L285.996565,57.165807L295.355593,72.449331L304.164492,78.072578L304.077202,78.980772L307.207144,65.621117L304.745410,57.645336L309.640197,56.299557L309.093287,55.710829L300.227063,45.427909L298.814390,42.784379L296.903404,36.222698L296.861912,36.204461L287.852337,35.775975L283.683309,33.943965L270.487360,33.973370L270.513647,33.984938Z "/><path d="M247.118823,3.102636L246.664070,2.479670L246.601063,2.823931L247.118823,3.102636Z "/><path d="M248.863349,0.147564L247.762988,0.758257L247.959278,0.971377L248.863349,0.147564Z M251.863502,5.784095L255.503244,5.746219L256.385624,5.057685L260.142618,0.000000L251.358478,0.000000L250.395674,0.479566L249.521794,1.614869L251.735121,5.151924L251.863502,5.784095Z M248.774049,0.000000L249.358016,0.475449L250.181598,0.065586L248.774049,0.000000Z M248.351648,0.000000L248.412814,0.065615L248.538496,0.000000L248.351648,0.000000Z "/><path d="M307.138896,16.107331L306.917856,15.943392L306.996438,15.951581L307.138896,16.107331Z M251.735364,5.934771L246.744824,6.672497L258.234013,19.062344L270.101829,33.853785L270.487360,33.973370L283.683309,33.943965L287.852337,35.775975L296.861912,36.204461L296.859024,36.185841L294.335390,30.460259L297.525469,26.173239L299.063693,8.463581L300.277020,14.640039L300.746685,0.000000L260.142618,0.000000L256.385624,5.057685L255.503244,5.746219L251.863502,5.784095L251.735364,5.934771Z "/><path d="M318.119259,90.036362L317.599167,89.880608L317.589670,90.093744L318.119259,90.036362Z M319.869626,88.446102L319.062126,85.011476L317.020055,86.868135L319.869626,88.446102Z M326.459511,81.974410L326.437573,81.748999L326.340911,81.962134L326.459511,81.974410Z M311.375670,78.068461L311.360240,77.498775L311.046421,78.011079L311.375670,78.068461Z M313.108426,76.445452L311.813237,76.220027L311.932903,76.429045L313.108426,76.445452Z M368.047091,75.785555L367.844435,75.719984L368.027511,75.818340L368.047091,75.785555Z M353.468025,76.392143L353.920817,75.150298L353.258436,75.945409L353.468025,76.392143Z M353.984616,73.904338L354.028792,73.367393L353.473650,73.285445L353.984616,73.904338Z M356.849746,75.101105L356.556512,72.514901L355.674613,72.695235L356.849746,75.101105Z M316.398440,62.739815L316.303518,62.170133L316.107782,61.993902L316.398440,62.739815Z M315.694308,60.407764L314.634053,59.571657L314.066466,59.534755L315.694308,60.407764Z M313.655113,59.731510L313.324491,58.182261L313.187437,58.182261L313.655113,59.731510Z M309.640197,56.299557L304.745410,57.645336L307.207144,65.621117L304.077202,78.980772L304.419459,79.056228L312.741962,75.039637L316.490587,76.576594L322.063823,83.806500L327.887919,81.228476L329.731892,90.864277L340.697774,84.613919L335.567352,77.162688L345.003348,70.420523L349.268434,64.625168L361.556460,70.256597L362.155336,78.367676L368.588923,90.733120L368.642894,90.737207L371.844776,84.064711L377.633733,77.215968L376.411811,69.399990L376.348517,69.510636L368.191608,61.252062L349.015281,55.452622L345.294804,58.698677L322.136301,67.182664L317.700071,62.944759L315.654299,65.625219L309.695006,56.276422L309.640197,56.299557Z "/></g><g class="" id="HND"><path d="M248.863349,0.147564L247.762988,0.758257L247.959278,0.971377L248.863349,0.147564Z M251.863502,5.784095L255.503244,5.746219L256.385624,5.057685L260.142618,0.000000L251.358478,0.000000L250.395674,0.479566L249.521794,1.614869L251.735121,5.151924L251.863502,5.784095Z M248.774049,0.000000L249.358016,0.475449L250.181598,0.065586L248.774049,0.000000Z M248.351648,0.000000L248.412814,0.065615L248.538496,0.000000L248.351648,0.000000Z "/></g><g class="" id="CRI"><path d="M276.977252,48.764083L275.961904,48.182103L276.131300,48.637016L276.977252,48.764083Z M270.513647,33.984938L269.141603,49.927834L274.506409,52.919741L279.950363,49.801007L285.996565,57.165807L295.355593,72.449331L304.164492,78.072578L304.077202,78.980772L307.207144,65.621117L304.745410,57.645336L309.640197,56.299557L309.093287,55.710829L300.227063,45.427909L298.814390,42.784379L296.903404,36.222698L296.861912,36.204461L287.852337,35.775975L283.683309,33.943965L270.487360,33.973370L270.513647,33.984938Z "/></g><g class="" id="SLV"><path d="M247.118823,3.102636L246.664070,2.479670L246.601063,2.823931L247.118823,3.102636Z "/></g><g class="" id="PAN"><path d="M318.119259,90.036362L317.599167,89.880608L317.589670,90.093744L318.119259,90.036362Z M319.869626,88.446102L319.062126,85.011476L317.020055,86.868135L319.869626,88.446102Z M326.459511,81.974410L326.437573,81.748999L326.340911,81.962134L326.459511,81.974410Z M311.375670,78.068461L311.360240,77.498775L311.046421,78.011079L311.375670,78.068461Z M313.108426,76.445452L311.813237,76.220027L311.932903,76.429045L313.108426,76.445452Z M368.047091,75.785555L367.844435,75.719984L368.027511,75.818340L368.047091,75.785555Z M353.468025,76.392143L353.920817,75.150298L353.258436,75.945409L353.468025,76.392143Z M353.984616,73.904338L354.028792,73.367393L353.473650,73.285445L353.984616,73.904338Z M356.849746,75.101105L356.556512,72.514901L355.674613,72.695235L356.849746,75.101105Z M316.398440,62.739815L316.303518,62.170133L316.107782,61.993902L316.398440,62.739815Z M315.694308,60.407764L314.634053,59.571657L314.066466,59.534755L315.694308,60.407764Z M313.655113,59.731510L313.324491,58.182261L313.187437,58.182261L313.655113,59.731510Z M309.640197,56.299557L304.745410,57.645336L307.207144,65.621117L304.077202,78.980772L304.419459,79.056228L312.741962,75.039637L316.490587,76.576594L322.063823,83.806500L327.887919,81.228476L329.731892,90.864277L340.697774,84.613919L335.567352,77.162688L345.003348,70.420523L349.268434,64.625168L361.556460,70.256597L362.155336,78.367676L368.588923,90.733120L368.642894,90.737207L371.844776,84.064711L377.633733,77.215968L376.411811,69.399990L376.348517,69.510636L368.191608,61.252062L349.015281,55.452622L345.294804,58.698677L322.136301,67.182664L317.700071,62.944759L315.654299,65.625219L309.695006,56.276422L309.640197,56.299557Z "/></g><g class="" id="NIC"><path d="M307.138896,16.107331L306.917856,15.943392L306.996438,15.951581L307.138896,16.107331Z M251.735364,5.934771L246.744824,6.672497L258.234013,19.062344L270.101829,33.853785L270.487360,33.973370L283.683309,33.943965L287.852337,35.775975L296.861912,36.204461L296.859024,36.185841L294.335390,30.460259L297.525469,26.173239L299.063693,8.463581L300.277020,14.640039L300.746685,0.000000L260.142618,0.000000L256.385624,5.057685L255.503244,5.746219L251.863502,5.784095L251.735364,5.934771Z "/></g><g class="" id="VEN"><path d="M588.850902,71.260753L587.809887,70.371360L585.483160,71.867340L588.850902,71.260753Z M588.322907,70.072147L586.784435,69.740178L586.530384,70.527098L588.322907,70.072147Z M588.404886,69.912322L589.534334,69.252442L588.656806,68.809811L588.404886,69.912322Z M591.198796,69.777065L591.468184,68.781098L591.156771,68.625361L591.198796,69.777065Z M589.308852,68.649957L590.883182,66.768702L588.887302,67.072002L589.308852,68.649957Z M588.179145,66.190800L591.036771,63.646202L589.876373,63.797247L588.179145,66.190800Z M590.907341,63.006242L590.023441,62.219326L589.783042,63.608725L590.907341,63.006242Z M592.775429,61.854543L592.561430,61.354534L591.580140,61.629120L592.775429,61.854543Z M586.834919,55.960833L585.529405,54.555049L585.312697,55.063260L586.834919,55.960833Z M572.903741,53.456650L572.846783,50.874566L572.606317,52.690218L572.903741,53.456650Z M568.618892,45.386906L567.223623,42.931939L566.870406,42.936011L568.618892,45.386906Z M535.057452,36.849795L535.790938,35.710406L533.883757,35.550555L535.057452,36.849795Z M554.142327,34.780059L546.308846,35.575151L548.542277,36.107937L554.142327,34.780059Z M517.898643,23.902675L518.379452,22.947730L518.332900,23.066578L517.898643,23.902675Z M524.809005,23.681342L525.040878,23.099362L524.947542,22.914945L524.809005,23.681342Z M544.829899,23.210022L544.425858,21.853427L543.932362,22.677234L544.829899,23.210022Z M457.413880,22.509194L448.786667,25.283864L441.610334,33.308679L435.483231,44.677875L433.856143,53.268114L428.787274,61.272556L440.912595,74.002693L439.201262,86.691901L445.088459,93.835765L455.631731,94.663681L460.475259,92.823397L469.088376,94.376770L478.044391,107.119351L502.324398,104.963470L503.478862,109.582387L498.310235,118.874148L498.330192,134.850304L501.017546,142.313829L497.524541,154.953849L505.435707,163.642851L509.600590,179.247848L509.682513,179.373530L509.701102,179.384006L517.251698,186.365325L526.362970,182.803665L526.676539,187.488331L532.345347,180.807672L546.261047,173.049065L547.376631,168.495551L555.453799,161.634536L547.579348,157.400711L543.705997,142.535153L540.277207,136.584007L555.845464,138.809537L563.952265,143.715546L568.467861,135.653621L579.701805,134.731438L592.744127,124.148868L590.999709,120.616062L590.828979,120.602620L590.594813,120.341442L585.384468,101.053398L594.127882,92.270100L591.996690,86.310722L603.895107,75.982297L602.004976,71.461581L601.801079,71.318135L589.132659,70.969758L589.456460,62.149639L592.185178,59.809370L581.646134,51.235229L570.004771,46.866480L567.419740,44.243442L578.807857,39.599862L568.290280,38.817060L547.981533,40.087588L550.043613,43.153243L536.876214,48.956704L521.835075,40.317080L497.268703,42.517971L495.461076,34.431690L483.765377,27.218348L477.534531,25.337143L475.712163,17.836884L475.391190,28.533966L468.609183,30.784032L453.802384,39.124427L458.782164,51.567224L458.845499,59.374931L456.200031,62.416036L445.375147,52.317249L453.136479,39.308873L449.150188,26.201922L457.151088,23.304289L457.413880,22.509194Z "/></g><g class="" id="URY"><path d="M659.103642,676.389092L662.178644,682.912051L659.057814,692.077948L660.623172,697.978348L689.025128,712.499949L696.358722,710.453352L707.279669,712.678254L713.404622,709.310954L721.836532,695.341065L722.102227,695.100053L719.911457,693.861121L721.687613,678.806455L701.527541,661.587211L698.762182,661.166815L687.714351,652.516041L682.700004,652.413988L670.578363,641.592353L661.183346,642.919670L660.798184,642.763366L660.652630,643.540402L658.839411,660.877067L659.363027,666.138472L659.036832,676.058353L659.103642,676.389092Z "/></g><g class="" id="SUR"><path d="M636.247851,116.451867L628.329068,124.689888L625.331621,138.256227L635.098024,148.461696L645.307818,168.544744L645.344719,168.707874L645.919376,168.860336L650.456780,162.614097L666.965453,161.482900L669.414149,163.151012L669.742913,163.031734L671.113205,162.503435L676.602411,148.781391L672.424532,132.320084L676.296955,118.505274L676.635729,117.792121L678.741362,112.537693L675.998912,110.644141L638.851147,109.611306L637.042121,116.009232L636.247851,116.451867Z "/></g><g class="" id="PER"><path d="M334.750836,247.667703L322.977313,262.201297L328.876964,280.489080L325.460379,283.747454L339.436135,295.543270L344.621797,302.027240L355.009050,318.786406L372.077881,355.246716L374.902229,364.013355L385.426860,378.456445L394.728645,393.383346L400.982541,413.729166L422.888365,431.259969L443.387835,442.077014L448.050798,443.655098L461.142254,452.270888L477.268273,468.034335L477.361199,468.131700L484.912275,462.124218L484.168728,460.054396L486.247674,457.345130L487.760830,455.689273L487.637858,454.533398L485.813963,451.401954L494.451485,437.744478L489.558397,435.785189L485.879440,415.897445L491.807395,406.904771L489.486653,401.596988L488.822324,387.288764L480.346411,360.623901L479.373311,358.980128L479.143383,358.968133L467.359692,359.062385L464.294343,337.434854L454.092211,345.008685L444.852811,344.275279L442.858464,338.107006L430.979745,336.201181L433.802537,329.946795L419.455606,308.970272L422.330673,298.867227L428.872283,286.186144L433.038048,273.013203L445.390406,263.955925L458.986288,259.098660L470.436707,260.291360L470.340020,259.913235L470.332245,259.508522L460.817792,251.958917L468.380009,238.056529L453.670078,232.228351L444.756105,231.634054L440.165105,234.269437L428.509017,231.621763L428.809911,225.863261L422.590934,217.625119L418.907125,216.141445L400.068294,199.217170L399.929411,199.165159L399.676300,199.386482L400.888165,211.800329L396.146861,220.352910L382.429800,235.350173L366.107940,242.252892L353.824491,269.230390L349.291612,270.668998L336.237970,262.283261L333.581185,262.893968L334.778324,247.277761L334.750836,247.667703Z "/></g><g class="" id="PRY"><path d="M636.864404,494.974726L637.068872,494.253560L617.660458,482.488929L612.512433,482.124236L590.296466,487.258927L584.794412,500.788993L582.465895,525.270772L582.368154,525.520902L582.752827,526.061628L587.955657,530.003715L595.375566,540.343844L605.127024,547.878048L618.193341,551.649822L631.593718,560.638340L648.876653,568.723204L652.067121,573.186998L646.931877,582.801075L641.228361,598.150231L642.562070,600.291387L670.949493,604.437638L674.152029,600.283162L678.650106,602.219036L689.915981,587.286083L689.481708,575.849961L689.669771,574.736333L689.569423,573.809184L692.252518,556.812147L686.592517,548.632355L683.637013,550.305054L675.835528,546.488355L672.315907,533.966577L667.274735,526.028835L655.945152,526.041153L641.508893,522.894162L642.307831,507.033261L636.980439,495.868030L636.864404,494.974726Z "/></g><g class="" id="GUY"><path d="M621.195058,95.635045L622.693271,94.593993L622.182190,94.536611L621.195058,95.635045Z M602.004976,71.461581L603.895107,75.982297L591.996690,86.310722L594.127882,92.270100L585.384468,101.053398L590.594813,120.341442L590.828979,120.602620L591.249773,120.456206L600.117056,122.001377L599.354553,131.091883L602.776631,131.649295L605.347797,138.395587L599.786498,155.195667L603.056059,169.995634L606.919453,174.331927L618.759621,178.573949L625.722802,173.495813L638.298613,168.979186L644.625107,169.032466L645.344719,168.707874L645.307818,168.544744L635.098024,148.461696L625.331621,138.256227L628.329068,124.689888L636.247851,116.451867L636.934030,115.296064L637.893927,109.730143L627.183154,97.204812L620.773579,97.147430L620.906786,88.589550L612.824862,78.683268L602.338681,71.703384L602.004976,71.461581Z "/></g><g class="" id="GUF"><path d="M676.296955,118.505274L672.424532,132.320084L676.602411,148.781391L671.113205,162.503435L669.742913,163.031734L669.835726,163.019856L690.599024,165.290469L694.772613,162.454257L708.196536,137.875108L708.326198,137.649638L704.848508,131.641106L694.883739,119.779942L685.267393,115.242784L676.599835,118.386407L676.296955,118.505274Z "/></g><g class="" id="FLK"><path d="M717.004565,964.184426L715.947345,963.156053L716.240702,964.332619L717.004565,964.184426Z M697.982666,958.837533L698.081537,958.208230L696.845116,958.235776L697.982666,958.837533Z M700.127274,958.904403L700.584710,960.005389L702.173095,959.824538L700.127274,958.904403Z M697.449291,956.496336L696.338028,957.067061L696.748393,957.299251L697.449291,956.496336Z M718.198727,952.398590L705.065795,953.168248L708.769243,957.747898L709.047790,963.002927L718.198727,952.398590Z M723.591698,951.349334L719.914262,953.218701L715.999763,962.158638L723.898375,964.023494L735.371103,955.440997L732.742791,951.996273L729.524340,955.145666L723.591698,951.349334Z M709.782614,951.550557L709.874570,950.871944L709.174489,950.579834L709.782614,951.550557Z M708.094784,952.323629L705.495739,950.627202L705.994437,951.732037L708.094784,952.323629Z "/></g><g class="" id="ECU"><path d="M336.562829,242.175592L339.931111,238.191772L336.280475,237.593387L336.562829,242.175592Z M341.048314,236.380211L340.757570,233.794006L340.415189,236.056416L341.048314,236.380211Z M213.240229,218.153845L212.985649,217.297237L211.779724,217.264452L213.240229,218.153845Z M207.638881,209.776362L207.127028,209.218953L207.119732,209.632915L207.638881,209.776362Z M204.796621,208.481210L205.687141,205.407287L202.245283,204.981034L204.796621,208.481210Z M188.630907,204.718723L188.825658,201.091493L186.879697,201.698080L188.630907,204.718723Z M192.259812,197.562620L190.432132,201.890704L194.062108,205.993380L188.781692,211.030524L196.094432,211.706784L192.259812,197.562620Z M198.381643,189.320397L198.388283,188.287558L197.739082,188.996617L198.381643,189.320397Z M352.769644,179.114966L353.012515,177.852599L352.099769,177.885384L352.769644,179.114966Z M353.885999,176.315629L337.755942,185.172646L337.972868,194.841176L332.140138,203.595716L333.689794,206.456520L329.223935,225.904250L326.081512,229.638044L333.000758,236.253157L342.497605,235.630162L337.334475,246.602075L334.988948,246.970948L334.778324,247.277761L333.581185,262.893968L336.237970,262.283261L349.291612,270.668998L353.824491,269.230390L366.107940,242.252892L382.429800,235.350173L396.146861,220.352910L400.888165,211.800329L399.676300,199.386482L399.929411,199.165159L399.838711,198.972534L388.736285,191.927093L379.433244,193.886198L372.651141,191.722163L371.263534,187.566208L354.141235,176.184473L353.885999,176.315629Z "/></g><g class="" id="COL"><path d="M357.828090,161.749299L357.768031,161.495190L357.716734,161.888659L357.828090,161.749299Z M363.376401,160.499236L363.226858,158.331080L362.190612,159.404911L363.376401,160.499236Z M365.148165,159.884445L365.670611,158.626178L364.389821,159.286060L365.148165,159.884445Z M366.836763,159.429507L366.847264,158.280028L366.499347,157.781874L366.836763,159.429507Z M367.986054,159.163093L366.529179,157.581045L367.089384,158.441757L367.986054,159.163093Z M371.548062,135.526566L373.808297,133.850244L371.623181,134.948675L371.548062,135.526566Z M376.411811,69.399990L377.633733,77.215968L371.844776,84.064711L368.642894,90.737207L369.848313,91.872528L375.398810,100.582065L376.201485,111.992585L373.146385,116.226440L376.013814,140.686687L366.937238,159.642642L361.510901,160.228735L353.556910,174.938514L354.141235,176.184473L371.263534,187.566208L372.651141,191.722163L379.433244,193.886198L388.736285,191.927093L399.838711,198.972534L399.929411,199.165159L400.068294,199.217170L418.907125,216.141445L422.590934,217.625119L428.809911,225.863261L428.509017,231.621763L440.165105,234.269437L444.756105,231.634054L453.670078,232.228351L468.380009,238.056529L460.817792,251.958917L470.332245,259.508522L470.340020,259.913235L470.497702,259.602791L476.868602,215.784864L476.252079,212.067466L468.067993,199.722568L468.269588,188.681025L479.146596,188.305101L478.404266,182.078228L470.950942,181.578201L471.902661,172.171977L492.041772,171.200620L492.154298,168.868525L502.588863,165.786395L509.525627,179.381807L509.682513,179.373530L509.600590,179.247848L505.435707,163.642851L497.524541,154.953849L501.017546,142.313829L498.330192,134.850304L498.310235,118.874148L503.478862,109.582387L502.324398,104.963470L478.044391,107.119351L469.088376,94.376770L460.475259,92.823397L455.631731,94.663681L445.088459,93.835765L439.201262,86.691901L440.912595,74.002693L428.787274,61.272556L433.856143,53.268114L435.483231,44.677875L441.610334,33.308679L448.786667,25.283864L457.413880,22.509194L457.493511,22.328864L459.204698,15.914694L453.681915,13.496567L431.510320,30.734840L421.811291,29.837278L416.842997,38.759680L411.308629,33.570985L403.403169,40.132678L399.686607,57.637147L393.198555,59.948729L385.480462,69.338521L382.891467,77.394000L376.658597,69.588512L376.411811,69.399990Z M323.609596,13.099002L324.105949,11.754686L323.902506,11.644040L323.609596,13.099002Z M329.276638,0.000000L329.057072,0.819726L329.348274,0.303303L329.276638,0.000000Z "/></g><g class="" id="CHL"><path d="M655.208653,1015.262038L652.653898,1014.410990L653.556734,1014.168294L655.208653,1015.262038Z M651.779322,1014.368559L650.950979,1015.381425L649.524212,1014.653552L651.779322,1014.368559Z M655.035209,1013.775321L654.432007,1013.494049L654.998349,1013.470982L655.035209,1013.775321Z M653.541726,1012.873633L650.567039,1013.101088L650.219713,1012.025633L653.541726,1012.873633Z M647.954973,1011.528368L647.551021,1009.997118L649.040057,1010.533332L647.954973,1011.528368Z M625.357774,1008.584815L624.075777,1007.546310L625.765059,1008.310751L625.357774,1008.584815Z M621.851284,1007.913128L620.500765,1006.828018L621.589584,1006.808705L621.851284,1007.913128Z M658.407764,1006.808705L658.019579,1005.155135L659.560562,1005.719233L658.407764,1006.808705Z M654.730687,1004.498025L651.277592,1003.044215L653.673489,1003.214374L654.730687,1004.498025Z M636.560882,1002.282125L633.726105,1005.301937L628.284411,1004.726067L636.560882,1002.282125Z M643.021860,1001.725004L649.771136,1002.332371L646.430424,1006.596209L637.012091,1001.748167L643.021860,1001.725004Z M613.634705,1002.429810L614.904471,1005.796501L613.295348,1004.003236L613.634705,1002.429810Z M622.196782,1003.384522L625.585729,1001.566334L627.571474,1001.984183L622.196782,1003.384522Z M612.122178,1001.519891L611.886660,1000.540807L612.667623,1000.474993L612.122178,1001.519891Z M594.981181,997.756363L596.184859,999.514803L595.931017,998.810021L594.981181,997.756363Z M590.114692,994.049859L587.392961,993.661864L588.404009,993.196206L590.114692,994.049859Z M611.698950,992.742082L608.745719,991.686153L611.088253,991.569680L611.698950,992.742082Z M578.845985,990.691894L575.709991,990.050945L576.008039,989.308764L578.845985,990.691894Z M599.739151,989.953831L601.481747,993.615278L598.425374,991.604558L599.739151,989.953831Z M594.357630,988.103707L593.313218,992.423849L590.983592,991.115303L594.357630,988.103707Z M607.329144,986.937016L602.465188,987.073220L605.346105,986.590838L607.329144,986.937016Z M568.317678,983.149616L567.341260,981.232471L569.461474,982.187303L568.317678,983.149616Z M577.421135,980.893382L586.369505,986.987650L572.926080,984.835711L577.421135,980.893382Z M562.667850,979.524570L561.884693,979.072105L562.903554,978.080984L562.667850,979.524570Z M568.349608,973.150972L569.071456,974.206482L568.428341,974.245557L568.349608,973.150972Z M558.313291,974.140037L574.791704,980.094031L559.546094,976.101555L558.313291,974.140037Z M567.774969,971.199002L567.794623,970.764526L567.953926,970.639289L567.774969,971.199002Z M620.036583,969.811044L628.084579,988.861805L630.126068,993.568705L632.890631,999.898176L632.989739,1000.127208L633.477550,1001.245150L633.435887,1001.295428L633.364706,1001.310947L615.330092,1000.788501L610.911694,997.667189L595.378232,997.613026L594.063937,995.291088L612.721978,996.194470L608.527981,992.831426L613.600189,979.423113L609.017033,980.565816L601.071873,971.778056L610.032273,967.223893L614.368674,970.416206L618.962912,969.300282L620.036583,969.811044Z M550.042765,965.231969L548.581104,963.996000L550.772619,963.858680L550.042765,965.231969Z M560.908219,966.365326L556.618304,962.751662L560.277376,964.486524L560.908219,966.365326Z M554.964575,962.684898L552.986381,963.026432L553.331537,961.938679L554.964575,962.684898Z M548.964739,963.415147L548.237374,962.590637L549.774626,961.604757L548.964739,963.415147Z M552.735378,961.844388L552.177055,961.675539L552.041276,961.420135L552.735378,961.844388Z M548.825375,961.985823L550.259288,959.918907L550.490991,960.084001L548.825375,961.985823Z M561.186302,964.168687L558.291927,962.119373L554.970799,959.435362L561.186302,964.168687Z M547.525504,962.720168L546.780062,959.392061L548.631329,958.755002L547.525504,962.720168Z M543.493579,959.360622L542.778834,956.909666L543.900009,957.141872L543.493579,959.360622Z M554.348130,960.064345L548.835178,956.705001L548.859307,956.661651L554.348130,960.064345Z M546.431043,958.227902L545.317492,958.900510L544.927682,956.850634L546.431043,958.227902Z M552.867592,954.428596L554.298645,957.822674L552.039826,956.752247L552.867592,954.428596Z M541.304370,952.185627L540.718935,954.799000L538.690909,954.345912L541.304370,952.185627Z M554.805482,951.842432L553.924018,951.732037L552.895295,950.915300L554.805482,951.842432Z M545.780899,950.532464L543.959376,952.706174L541.421026,952.859958L545.780899,950.532464Z M546.738744,949.525869L543.802146,947.602207L544.652652,946.950135L546.738744,949.525869Z M544.776157,944.577175L542.679173,948.155350L539.148936,946.226650L544.776157,944.577175Z M541.672847,945.008479L537.878614,943.338332L539.915668,942.380038L541.672847,945.008479Z M537.775420,943.912391L535.873520,941.651187L536.796485,941.615501L537.775420,943.912391Z M534.805500,939.669405L534.191280,940.870610L531.176430,938.927685L534.805500,939.669405Z M533.234846,934.675288L536.208873,934.889887L533.103050,938.376231L533.234846,934.675288Z M524.658594,925.791368L523.423627,925.133124L523.684498,924.646270L524.658594,925.791368Z M538.198784,925.982880L536.650286,926.198272L536.799180,924.554421L538.198784,925.982880Z M529.543571,922.166920L525.263263,919.045910L528.625110,919.133861L529.543571,922.166920Z M523.096979,916.338436L522.999580,917.266411L521.509579,918.590187L523.096979,916.338436Z M524.928290,917.918359L523.822803,915.386076L525.100708,916.074383L524.928290,917.918359Z M525.695982,914.213399L525.026786,912.864371L527.017639,913.128629L525.695982,914.213399Z M522.080802,913.793203L518.511931,914.929929L520.878551,912.672143L522.080802,913.793203Z M524.607058,915.526201L524.031210,912.656086L524.464998,913.248704L524.607058,915.526201Z M530.979241,911.150427L529.823699,909.371815L531.792064,910.245123L530.979241,911.150427Z M534.649302,909.940690L532.306111,909.375883L532.779698,908.834912L534.649302,909.940690Z M528.311552,910.080852L536.016565,926.329824L533.769055,931.684538L525.709337,905.981576L528.311552,910.080852Z M529.631758,907.901315L526.708154,905.693021L527.066424,905.236023L529.631758,907.901315Z M523.005721,905.753137L525.136854,908.862967L523.479344,909.920658L523.005721,905.753137Z M522.942419,902.032670L518.378817,903.885018L519.096367,902.826561L522.942419,902.032670Z M532.982839,901.860318L529.012152,903.271669L527.156011,901.391161L532.982839,901.860318Z M518.920845,901.322983L516.833593,899.819278L518.731123,899.626753L518.920845,901.322983Z M525.846842,877.692916L523.067675,875.444906L523.183962,874.897120L525.846842,877.692916Z M512.919774,872.523103L511.797140,876.248847L510.099596,873.042533L512.919774,872.523103Z M524.628439,872.391195L523.549249,874.341502L523.015835,874.497421L524.628439,872.391195Z M521.405793,873.470048L519.660488,871.532319L521.336798,871.604287L521.405793,873.470048Z M511.725391,870.450071L509.977736,869.615753L509.833395,868.985100L511.725391,870.450071Z M513.525731,871.156934L512.169636,869.432126L512.530802,868.829456L513.525731,871.156934Z M520.721526,870.693647L518.595881,868.953206L520.821266,868.733781L520.721526,870.693647Z M515.522447,871.476371L514.130298,867.285583L514.456781,866.663461L515.522447,871.476371Z M524.872450,871.192806L522.109249,868.111325L522.449150,866.787113L524.872450,871.192806Z M513.729692,868.031559L513.035687,866.715367L513.942832,866.452216L513.729692,868.031559Z M520.255529,866.520007L520.568108,865.603134L520.998929,866.141243L520.255529,866.520007Z M514.930940,866.117262L512.370056,864.455495L514.210414,864.742304L514.930940,866.117262Z M518.461131,864.128797L516.968760,864.953521L516.163569,863.885821L518.461131,864.128797Z M518.608510,860.335921L514.936029,862.663448L515.689853,860.797212L518.608510,860.335921Z M516.953084,860.073659L513.825347,858.551274L516.594685,858.865177L516.953084,860.073659Z M503.920573,859.230848L502.553373,858.006983L503.084915,857.196759L503.920573,859.230848Z M515.758605,858.249327L515.609526,857.025966L516.255786,857.367464L515.758605,858.249327Z M519.033390,859.795310L517.319959,858.940701L516.547884,857.339656L519.033390,859.795310Z M520.078483,858.070595L518.514473,857.053771L520.189477,856.823437L520.078483,858.070595Z M509.891957,855.918309L507.225175,855.414256L507.681938,854.890454L509.891957,855.918309Z M506.094401,855.826959L505.059650,853.851085L505.952897,854.196130L506.094401,855.826959Z M518.455973,856.628885L517.231971,855.719794L516.828610,853.981927L518.455973,856.628885Z M511.164657,854.251697L510.137058,853.505993L511.908287,853.085663L511.164657,854.251697Z M514.285824,853.958180L512.876270,853.613062L512.443198,852.411551L514.285824,853.958180Z M509.458855,853.331484L507.937421,852.284683L509.951705,851.678237L509.458855,853.331484Z M529.437579,853.851085L525.840247,859.326260L521.903238,854.454037L529.437579,853.851085Z M514.785617,852.407626L512.691333,851.563268L512.264967,850.604178L514.785617,852.407626Z M522.539378,851.555320L521.703638,850.734883L522.664998,850.699303L522.539378,851.555320Z M515.189514,850.837957L513.413635,850.037597L515.187173,849.867177L515.189514,850.837957Z M516.606272,850.354507L515.766413,849.637361L515.812796,849.593832L516.606272,850.354507Z M508.906658,848.797612L508.671899,848.072785L508.995887,848.112378L508.906658,848.797612Z M508.383924,846.473007L508.054644,846.219525L508.244764,846.203761L508.383924,846.473007Z M516.492498,847.890575L514.704886,845.107060L516.013303,846.160147L516.492498,847.890575Z M502.090500,840.496340L499.349448,839.677159L501.460444,839.732590L502.090500,840.496340Z M513.801078,831.747205L510.903933,830.735403L511.178912,830.553192L513.801078,831.747205Z M509.491247,826.320917L509.479060,826.705538L507.768389,825.952155L509.491247,826.320917Z M511.330837,825.440646L508.521274,823.996630L509.148494,823.048082L511.330837,825.440646Z M513.819473,821.940406L512.607892,821.058637L513.531124,820.971242L513.819473,821.940406Z M502.165084,814.840699L506.798662,815.187366L510.373393,820.983141L506.371758,824.401263L513.224808,833.404182L511.841791,837.045684L503.639521,835.735647L500.780931,820.891810L502.165084,814.840699Z M512.742274,815.541853L511.723396,815.171389L512.759677,815.067768L512.742274,815.541853Z M384.355624,695.674159L383.679777,694.617417L384.490538,694.794132L384.355624,695.674159Z M408.036184,693.367866L406.626319,693.478815L405.713080,694.004938L408.036184,693.367866Z M2.912426,597.776911L1.091043,596.747268L3.030630,597.227258L2.912426,597.776911Z M371.311996,586.165897L371.067888,586.051000L371.218965,586.009964L371.311996,586.165897Z M368.641623,584.906159L368.352874,584.902053L368.570416,584.754345L368.641623,584.906159Z M525.399139,534.118200L526.531033,535.282144L525.469892,551.826101L518.723236,555.253924L511.226516,562.939197L512.132039,573.182892L518.974917,594.211979L512.988647,597.592302L504.940579,620.318745L503.019948,629.475897L507.956018,642.846150L504.256764,648.267743L502.610599,663.134046L509.133950,673.991011L515.496613,688.621760L517.066368,716.304881L515.389936,718.253889L519.733283,731.201878L517.027026,732.867801L516.777727,754.555767L520.319853,759.853078L518.658752,784.463883L520.955334,800.291721L529.164554,818.936397L528.508292,830.438321L538.987395,845.463369L538.177541,847.213401L546.626496,852.106342L547.299220,857.486592L538.174509,857.339656L548.994919,863.455723L545.840273,868.366639L552.546141,884.519724L553.079075,892.043504L549.180954,900.007730L553.446571,915.394100L546.185681,922.402554L557.711640,942.784030L567.230752,941.643243L573.387570,956.378249L579.533837,960.693165L607.709789,962.783044L620.433653,966.090816L619.853936,965.518322L613.842331,964.710237L596.255321,971.093356L600.826349,985.466351L590.090829,985.104388L582.101883,979.345118L587.843439,978.049792L589.832350,980.893382L593.710004,973.295636L574.556650,974.788819L580.733531,969.785883L574.381803,971.445554L570.735990,975.968748L569.067973,970.897618L560.615482,961.958306L568.783684,960.072227L575.018508,965.381073L568.155210,954.901367L565.688132,962.072232L546.882422,945.720401L550.614964,943.255253L545.278574,938.507209L537.463238,935.195914L538.268365,926.808381L542.685095,925.460241L537.956979,918.238316L538.564104,925.591944L529.178823,903.856946L539.211513,907.051682L534.888901,900.392671L526.241463,897.625640L528.122429,889.373288L508.127292,884.247372L513.335545,872.099537L519.094968,871.744057L517.297207,877.024814L526.089029,878.233070L529.599528,870.110793L524.804740,866.894764L531.324273,866.938692L525.721864,859.803282L530.327733,852.760452L521.743908,845.807837L524.110995,842.835197L518.004233,825.698381L520.114376,818.848920L510.652541,812.061289L503.422113,813.908054L496.831244,802.664508L498.254610,777.353684L491.597415,766.581994L489.652822,758.242415L485.828523,752.871199L485.238431,746.072256L488.470057,747.308315L490.849827,739.267228L490.333181,728.555725L494.204084,715.445342L495.815236,695.098469L494.625005,689.639281L494.989683,675.317875L492.675884,672.183240L487.792112,656.714804L485.302188,645.124568L488.913080,638.528533L483.380864,623.774725L486.075438,597.703059L487.759533,595.532975L485.810203,578.168327L488.491299,571.656594L482.841676,542.335872L485.974862,535.294419L483.438691,492.159826L477.482613,468.177793L477.361199,468.131700L484.912275,462.124218L484.168728,460.054396L486.247674,457.345130L487.760830,455.689273L488.054687,457.533704L494.031847,463.562831L496.734861,477.050712L502.653415,482.493030L503.842074,491.262444L501.792232,496.003252L504.735300,505.332906L510.200174,511.626299L516.584825,534.212462L523.520999,534.577218L525.399139,534.118200Z M521.237240,874.741185L521.137660,876.584798L521.610993,876.160857L521.237240,874.741185Z "/></g><g class="" id="BRA"><path d="M769.547058,573.449641L768.994334,571.816617L768.814783,572.559253L769.547058,573.449641Z M774.045049,566.667899L777.161187,563.074540L774.650560,564.793203L774.045049,566.667899Z M806.231466,548.251097L804.862667,547.500916L804.112326,549.194001L806.231466,548.251097Z M819.958251,539.323245L816.433462,539.138790L816.418169,539.364220L819.958251,539.323245Z M999.508176,499.817911L999.400027,499.703182L999.348388,499.740044L999.508176,499.817911Z M878.236976,399.174714L877.169758,398.022978L877.792577,399.195194L878.236976,399.174714Z M879.933363,390.879116L880.955162,388.403578L880.227908,389.489710L879.933363,390.879116Z M899.921007,361.611657L901.030123,359.607491L900.648150,359.357475L899.921007,361.611657Z M927.795275,301.764941L927.839631,301.428853L927.599892,301.744447L927.795275,301.764941Z M928.033118,300.760792L927.887414,300.691104L927.873836,300.740283L928.033118,300.760792Z M958.611493,254.700867L959.473500,254.184445L958.848172,254.225434L958.611493,254.700867Z M800.075301,241.782138L800.033281,239.999245L799.523929,241.417367L800.075301,241.782138Z M800.395465,242.437904L801.664195,237.384355L800.658247,238.249154L800.395465,242.437904Z M833.370652,238.146696L833.114815,237.027774L831.623262,236.974494L833.370652,238.146696Z M811.897723,231.732425L812.602705,230.650406L812.180495,230.769256L811.897723,231.732425Z M718.398493,225.592746L714.671288,224.670567L716.164769,226.551812L718.398493,225.592746Z M743.175917,223.895936L743.594824,220.678564L742.952731,220.924483L743.175917,223.895936Z M799.296260,221.358926L798.449133,220.453139L797.594278,221.289253L799.296260,221.358926Z M747.402247,219.305536L747.337127,217.953017L746.576211,218.780927L747.402247,219.305536Z M748.811681,219.899832L748.613632,217.780872L748.079956,218.043184L748.811681,219.899832Z M698.085840,219.936719L700.819476,217.489876L697.911234,219.035035L698.085840,219.936719Z M794.908902,218.084173L795.050195,216.014390L794.377156,217.116903L794.908902,218.084173Z M775.175411,212.452730L775.483303,210.411647L774.544764,211.661708L775.175411,212.452730Z M716.666490,210.182120L714.067321,213.284742L715.601793,212.711176L716.666490,210.182120Z M717.537392,209.866529L717.496556,208.157430L716.948368,209.362400L717.537392,209.866529Z M756.437156,208.128731L757.110472,207.198364L755.974955,207.542639L756.437156,208.128731Z M759.915242,207.862333L760.114846,206.063052L760.012889,205.878616L759.915242,207.862333Z M715.819518,207.124590L716.252386,205.739271L715.973459,205.710573L715.819518,207.124590Z M704.815890,219.186685L714.553036,207.280327L707.920384,210.292782L704.815890,219.186685Z M711.222358,205.378589L712.312208,204.276077L711.310550,204.669545L711.222358,205.378589Z M717.019967,205.772057L718.789177,202.882570L718.058372,203.083398L717.019967,205.772057Z M715.074461,205.366298L717.126339,202.386644L716.125611,201.648902L715.074461,205.366298Z M717.680137,202.353844L716.338193,201.050504L717.046262,202.181714L717.680137,202.353844Z M719.034951,202.694032L719.742467,201.673483L719.740952,200.743116L719.034951,202.694032Z M711.516519,204.550680L715.228315,199.394685L711.271853,203.812937L711.516519,204.550680Z M733.238135,200.759509L720.929693,201.517746L721.362019,214.374963L719.117523,218.653873L723.927799,224.412356L732.080740,224.191048L745.777457,215.579934L750.222707,201.266323L740.057701,199.402874L733.238135,200.759509Z M722.240543,198.320857L716.820864,198.726615L716.113144,200.706229L722.240543,198.320857Z M717.747370,198.099534L720.408405,197.046200L718.569293,196.550275L717.747370,198.099534Z M735.684113,199.382380L735.701635,196.287963L734.738598,196.197796L735.684113,199.382380Z M723.561844,197.734764L723.562620,195.468257L721.793413,194.324756L723.561844,197.734764Z M726.333974,194.013266L728.041901,192.455803L726.092202,193.455858L726.333974,194.013266Z M734.244663,194.041950L733.309741,192.435309L724.581063,194.447708L734.244663,194.041950Z M729.440186,184.389812L727.602562,184.316894L726.028900,185.279205L729.440186,184.389812Z M729.415526,183.598790L730.187191,182.852858L729.523688,181.828207L729.415526,183.598790Z M724.482161,169.639054L724.755090,165.921653L724.552732,165.892955L724.482161,169.639054Z M723.496784,166.122481L723.705191,164.728957L722.764887,165.265873L723.496784,166.122481Z M590.828979,120.602620L590.999709,120.616062L592.744127,124.148868L579.701805,134.731438L568.467861,135.653621L563.952265,143.715546L555.845464,138.809537L540.277207,136.584007L543.705997,142.535153L547.579348,157.400711L555.453799,161.634536L547.376631,168.495551L546.261047,173.049065L532.345347,180.807672L526.676539,187.488331L526.362970,182.803665L517.251698,186.365325L509.701102,179.384006L509.682513,179.373530L509.525627,179.381807L502.588863,165.786395L492.154298,168.868525L492.041772,171.200620L471.902661,172.171977L470.950942,181.578201L478.404266,182.078228L479.146596,188.305101L468.269588,188.681025L468.067993,199.722568L476.252079,212.067466L476.868602,215.784864L470.497702,259.602791L470.340020,259.913235L470.436707,260.291360L458.986288,259.098660L445.390406,263.955925L433.038048,273.013203L428.872283,286.186144L422.330673,298.867227L419.455606,308.970272L433.802537,329.946795L430.979745,336.201181L442.858464,338.107006L444.852811,344.275279L454.092211,345.008685L464.294343,337.434854L467.359692,359.062385L479.143383,358.968133L479.373311,358.980128L479.384933,358.972220L492.270109,361.267758L497.999174,355.640175L515.854483,344.414637L531.927010,340.214053L533.584450,345.434916L532.640398,353.988494L534.853705,366.794555L539.766788,374.665334L549.732304,381.526242L565.173037,384.841951L585.765359,397.301619L592.057468,396.486906L603.740874,420.102780L599.713245,420.160165L604.568574,425.783823L606.322893,437.359181L629.947295,437.596887L628.538126,444.126464L630.174535,451.910185L639.612519,460.701972L640.348474,478.444108L636.806757,488.680887L637.469635,494.696138L636.864404,494.974726L636.980439,495.868030L642.307831,507.033261L641.508893,522.894162L655.945152,526.041153L667.274735,526.028835L672.315907,533.966577L675.835528,546.488355L683.637013,550.305054L686.592517,548.632355L692.252518,556.812147L689.569423,573.809184L689.669771,574.736333L690.266518,574.688784L698.738056,575.603776L703.211377,594.507323L696.793199,602.161588L690.516107,603.625677L684.165819,610.923637L661.107575,642.703252L660.798184,642.763366L661.183346,642.919670L670.578363,641.592353L682.700004,652.413988L687.714351,652.516041L698.762182,661.166815L701.527541,661.587211L721.687613,678.806455L719.911457,693.861121L722.102227,695.100053L722.751690,694.637974L733.925231,671.124934L733.657080,660.591421L740.804328,651.467306L740.178269,641.306463L744.693453,645.794087L747.677898,643.299436L743.662305,660.452647L748.439599,655.931367L752.606916,646.830974L754.313279,638.624268L769.174666,613.903229L769.672499,608.574730L765.567333,579.296775L763.976476,579.419843L773.757469,567.106806L791.068537,551.821998L804.077070,548.431476L803.642606,546.029199L820.344391,535.819029L845.850084,535.556745L846.420346,529.819351L855.627642,523.934915L857.878495,510.958410L866.825128,495.441831L872.160945,466.284272L876.594127,461.058545L877.935480,443.638719L880.228372,431.620668L877.312270,416.073687L878.723135,391.719318L880.958652,383.731259L888.894729,383.796829L900.618735,359.218148L907.121545,353.021245L924.988939,328.286879L928.477478,316.306743L928.278448,301.610870L920.259720,274.341165L896.919907,269.513198L895.780073,267.131897L860.207750,239.429544L853.934751,238.650826L841.821230,240.302547L836.220909,237.736834L816.409914,232.306227L806.401640,238.281939L801.380581,227.650238L791.190406,222.949175L790.153864,217.317731L783.629752,216.166041L779.170801,211.526450L770.816442,207.927903L758.438081,206.915558L751.133776,216.903769L753.254197,219.117013L729.511683,224.281200L718.895196,211.251847L716.725084,210.977245L705.887374,219.600633L700.578062,221.743762L694.261720,220.563801L707.159563,212.665849L707.368345,208.501705L725.455746,186.287463L730.589355,178.938719L730.601681,172.307235L723.118195,169.569381L719.550885,160.700065L712.934123,135.071628L708.292962,137.866874L708.196536,137.875108L694.772613,162.454257L690.599024,165.290469L669.835726,163.019856L669.742913,163.031734L669.414149,163.151012L666.965453,161.482900L650.456780,162.614097L645.919376,168.860336L645.344719,168.707874L644.625107,169.032466L638.298613,168.979186L625.722802,173.495813L618.759621,178.573949L606.919453,174.331927L603.056059,169.995634L599.786498,155.195667L605.347797,138.395587L602.776631,131.649295L599.354553,131.091883L600.117056,122.001377L591.249773,120.456206L590.828979,120.602620Z "/></g><g class="" id="BOL"><path d="M582.368154,525.520902L582.465895,525.270772L584.794412,500.788993L590.296466,487.258927L612.512433,482.124236L617.660458,482.488929L637.068872,494.253560L636.864404,494.974726L637.469635,494.696138L636.806757,488.680887L640.348474,478.444108L639.612519,460.701972L630.174535,451.910185L628.538126,444.126464L629.947295,437.596887L606.322893,437.359181L604.568574,425.783823L599.713245,420.160165L603.740874,420.102780L592.057468,396.486906L585.765359,397.301619L565.173037,384.841951L549.732304,381.526242L539.766788,374.665334L534.853705,366.794555L532.640398,353.988494L533.584450,345.434916L531.927010,340.214053L515.854483,344.414637L497.999174,355.640175L492.270109,361.267758L479.384933,358.972220L479.373311,358.980128L480.346411,360.623901L488.822324,387.288764L489.486653,401.596988L491.807395,406.904771L485.879440,415.897445L489.558397,435.785189L494.451485,437.744478L485.813963,451.401954L487.637858,454.533398L487.760830,455.689273L488.054687,457.533704L494.031847,463.562831L496.734861,477.050712L502.653415,482.493030L503.842074,491.262444L501.792232,496.003252L504.735300,505.332906L510.200174,511.626299L516.584825,534.212462L523.520999,534.577218L525.399139,534.118200L525.974101,532.634651L534.978089,523.717199L536.029140,518.759223L541.702497,523.049862L555.770718,524.672535L561.896199,534.884570L565.473278,522.009060L579.921896,521.983068L582.223219,525.504365L582.368154,525.520902Z "/></g><g class="" id="ARG"><path d="M632.989739,1000.127208L633.477550,1001.245150L633.435887,1001.295428L633.698913,1001.334226L634.177805,1001.241319L634.317780,1001.175535L633.147300,1000.215566L632.989739,1000.127208Z M685.135444,999.104360L675.812838,999.739405L676.734928,1001.554758L685.135444,999.104360Z M620.036583,969.811044L628.084579,988.861805L630.126068,993.568705L632.890631,999.898176L633.843185,1000.560149L658.354103,1003.566354L669.726952,1001.481207L669.940884,997.872578L656.449367,995.996747L620.814882,970.443629L620.036583,969.811044Z M635.093078,777.378323L634.637193,775.904164L631.921051,775.281807L635.093078,777.378323Z M525.399139,534.118200L526.531033,535.282144L525.469892,551.826101L518.723236,555.253924L511.226516,562.939197L512.132039,573.182892L518.974917,594.211979L512.988647,597.592302L504.940579,620.318745L503.019948,629.475897L507.956018,642.846150L504.256764,648.267743L502.610599,663.134046L509.133950,673.991011L515.496613,688.621760L517.066368,716.304881L515.389936,718.253889L519.733283,731.201878L517.027026,732.867801L516.777727,754.555767L520.319853,759.853078L518.658752,784.463883L520.955334,800.291721L529.164554,818.936397L528.508292,830.438321L538.987395,845.463369L538.177541,847.213401L546.626496,852.106342L547.299220,857.486592L538.174509,857.339656L548.994919,863.455723L545.840273,868.366639L552.546141,884.519724L553.079075,892.043504L549.180954,900.007730L553.446571,915.394100L546.185681,922.402554L557.711640,942.784030L567.230752,941.643243L573.387570,956.378249L579.533837,960.693165L607.709789,962.783044L620.433653,966.090816L620.536115,966.141861L602.967808,946.637778L602.792727,940.811070L613.057116,932.082483L611.739086,923.420782L615.169542,912.812250L625.027463,896.891725L621.249855,890.491836L611.732108,889.706041L597.990125,879.021514L597.782345,869.116846L606.264850,860.753511L614.942710,860.530783L614.776589,845.459450L618.326024,833.431916L621.284991,831.654215L611.676741,828.231523L614.238920,825.460478L622.566112,829.911528L628.158146,826.404234L623.619526,818.773336L617.072558,823.861706L607.747878,817.349295L606.784481,810.831595L602.225397,800.895388L604.642015,798.873784L624.631243,805.437800L633.145789,802.881449L633.781957,781.355410L627.589207,770.677664L642.860380,773.763990L654.189177,772.091501L671.661505,767.448318L682.819226,761.445863L690.465155,741.836701L685.993286,734.283479L679.211713,728.605804L679.438104,718.611450L661.547154,707.077576L659.629494,696.838371L660.810460,685.521865L659.022175,676.029266L659.036832,676.058353L659.363027,666.138472L658.839411,660.877067L660.652630,643.540402L660.798184,642.763366L661.107575,642.703252L684.165819,610.923637L690.516107,603.625677L696.793199,602.161588L703.211377,594.507323L698.738056,575.603776L690.266518,574.688784L689.669771,574.736333L689.481708,575.849961L689.915981,587.286083L678.650106,602.219036L674.152029,600.283162L670.949493,604.437638L642.562070,600.291387L641.228361,598.150231L646.931877,582.801075L652.067121,573.186998L648.876653,568.723204L631.593718,560.638340L618.193341,551.649822L605.127024,547.878048L595.375566,540.343844L587.955657,530.003715L582.752827,526.061628L582.368154,525.520902L582.223219,525.504365L579.921896,521.983068L565.473278,522.009060L561.896199,534.884570L555.770718,524.672535L541.702497,523.049862L536.029140,518.759223L534.978089,523.717199L525.974101,532.634651L525.399139,534.118200Z "/></g></svg>